<svg width="402" height="32" viewBox="0 0 402 32" fill="none" xmlns="http://www.w3.org/2000/svg">
<path d="M42.9545 13.986C42.9545 14.9393 42.7118 15.8493 42.2265 16.716C41.7585 17.5827 41.1172 18.3453 40.3025 19.004C39.5052 19.6453 38.5605 20.1567 37.4685 20.538C36.3938 20.9193 35.2498 21.11 34.0365 21.11C33.6032 21.11 33.2565 21.058 32.9965 20.954C32.7538 20.8327 32.4765 20.6073 32.1645 20.278C31.2978 22.1673 30.5872 23.9093 30.0325 25.504C29.4952 27.0813 29.0705 28.6153 28.7585 30.106C28.0998 29.95 27.5625 29.6727 27.1465 29.274C26.7305 28.8927 26.3492 28.4073 26.0025 27.818C26.1758 27.4887 26.3838 27.0553 26.6265 26.518C26.8692 25.9807 27.1638 25.322 27.5105 24.542C27.8572 23.7447 28.2558 22.8 28.7065 21.708C29.1745 20.5987 29.7205 19.3073 30.3445 17.834C30.6218 17.158 30.8645 16.5687 31.0725 16.066C31.2805 15.5633 31.4625 15.0953 31.6185 14.662C31.7745 14.2113 31.9132 13.7693 32.0345 13.336C32.1732 12.9027 32.3118 12.426 32.4505 11.906C31.6358 12.166 30.8818 12.4693 30.1885 12.816C29.5125 13.1627 28.9492 13.5267 28.4985 13.908C28.3425 13.804 28.1778 13.648 28.0045 13.44C27.8485 13.232 27.7012 13.0067 27.5625 12.764C27.4238 12.504 27.3025 12.244 27.1985 11.984C27.0945 11.724 27.0338 11.49 27.0165 11.282C27.5192 10.9353 28.1432 10.6147 28.8885 10.32C29.6338 10.0253 30.4312 9.77401 31.2805 9.56601C32.1298 9.34068 33.0052 9.16735 33.9065 9.04601C34.8252 8.92468 35.7005 8.86401 36.5325 8.86401C37.5205 8.86401 38.4132 8.99401 39.2105 9.25401C40.0078 9.49668 40.6838 9.84335 41.2385 10.294C41.7932 10.7447 42.2178 11.282 42.5125 11.906C42.8072 12.53 42.9545 13.2233 42.9545 13.986ZM38.3265 10.866C37.6678 10.866 36.9918 10.918 36.2985 11.022L36.6105 11.49C36.4372 11.7153 36.2205 12.0533 35.9605 12.504C35.7005 12.9547 35.4145 13.5007 35.1025 14.142C34.7905 14.766 34.4438 15.468 34.0625 16.248C33.6985 17.028 33.3085 17.8513 32.8925 18.718C34.2445 18.718 35.4752 18.5967 36.5845 18.354C37.6938 18.094 38.6385 17.7473 39.4185 17.314C40.2158 16.8633 40.8312 16.3433 41.2645 15.754C41.7152 15.1647 41.9405 14.532 41.9405 13.856C41.9405 12.9547 41.6372 12.2353 41.0305 11.698C40.4238 11.1433 39.5225 10.866 38.3265 10.866Z" fill="white"/>
<path d="M50.7025 17.236C50.6332 18.3107 50.4425 19.238 50.1305 20.018C49.8185 20.7807 49.3678 21.4567 48.7785 22.046C48.2065 22.618 47.5045 23.138 46.6725 23.606C45.8405 24.074 44.8698 24.5247 43.7605 24.958C43.7605 25.062 43.7518 25.1747 43.7345 25.296C43.7345 25.4 43.7345 25.5127 43.7345 25.634C43.7345 25.8593 43.7518 26.0933 43.7865 26.336C43.8212 26.5787 43.8818 26.804 43.9685 27.012C44.0552 27.22 44.1765 27.3933 44.3325 27.532C44.4885 27.6533 44.6878 27.714 44.9305 27.714C45.3985 27.714 45.8578 27.61 46.3085 27.402C46.7592 27.194 47.1838 26.9427 47.5825 26.648C47.9985 26.336 48.3798 26.0067 48.7265 25.66C49.0905 25.296 49.4112 24.9667 49.6885 24.672C49.8618 24.828 50.0092 24.9753 50.1305 25.114C49.3505 26.154 48.4925 27.0207 47.5565 27.714C46.6378 28.39 45.7625 28.8233 44.9305 29.014C43.7345 28.8753 42.7985 28.442 42.1225 27.714C41.4638 26.9687 41.1345 26.076 41.1345 25.036C41.1345 24.3253 41.2298 23.606 41.4205 22.878C41.6285 22.1327 41.9058 21.422 42.2525 20.746C42.6165 20.0527 43.0325 19.4027 43.5005 18.796C43.9858 18.1893 44.4972 17.6607 45.0345 17.21C45.5892 16.7593 46.1525 16.404 46.7245 16.144C47.3138 15.884 47.8945 15.754 48.4665 15.754C49.2638 15.858 50.0092 16.352 50.7025 17.236ZM48.9085 18.094C48.4405 18.1633 47.9552 18.354 47.4525 18.666C46.9498 18.978 46.4732 19.394 46.0225 19.914C45.5892 20.434 45.1905 21.0407 44.8265 21.734C44.4625 22.4273 44.1765 23.1727 43.9685 23.97C45.3552 23.2767 46.5078 22.4273 47.4265 21.422C48.3452 20.3993 48.8392 19.29 48.9085 18.094Z" fill="white"/>
<path d="M51.2822 27.48C51.3689 26.9773 51.5162 26.3187 51.7242 25.504C51.9496 24.672 52.2096 23.7967 52.5042 22.878C52.7989 21.942 53.1109 21.006 53.4402 20.07C53.7696 19.134 54.0902 18.2933 54.4022 17.548C54.6276 17.0107 54.8269 16.5947 55.0002 16.3C55.1736 15.988 55.3642 15.728 55.5722 15.52C55.8149 15.5547 56.0662 15.6153 56.3262 15.702C56.5862 15.7887 56.8376 15.8927 57.0802 16.014C57.3229 16.1353 57.5396 16.2653 57.7302 16.404C57.9209 16.5253 58.0682 16.6467 58.1722 16.768C57.7042 17.3227 57.2882 17.9553 56.9242 18.666C56.5776 19.3767 56.2222 20.2867 55.8582 21.396C56.7942 20.564 57.6176 19.7667 58.3282 19.004C59.0562 18.2413 59.7322 17.392 60.3562 16.456C60.4602 16.3693 60.6422 16.326 60.9022 16.326C61.1449 16.326 61.3789 16.3693 61.6042 16.456C61.8296 16.5253 61.9856 16.6293 62.0722 16.768C61.7602 17.6 61.6042 18.4233 61.6042 19.238C61.6042 20.0007 61.7169 20.5727 61.9422 20.954C61.9249 21.058 61.8036 21.2573 61.5782 21.552C61.3702 21.8467 61.1362 22.124 60.8762 22.384C60.4082 22.1413 59.9922 21.812 59.6282 21.396C59.2642 20.9627 58.9956 20.4947 58.8222 19.992C58.0076 20.564 57.3142 21.1273 56.7422 21.682C56.1702 22.2193 55.6762 22.826 55.2602 23.502C54.8616 24.1607 54.5149 24.9233 54.2202 25.79C53.9429 26.6567 53.6742 27.688 53.4142 28.884C53.2582 28.8667 53.0676 28.806 52.8422 28.702C52.6342 28.6153 52.4176 28.5027 52.1922 28.364C51.9842 28.2253 51.7936 28.078 51.6202 27.922C51.4469 27.766 51.3342 27.6187 51.2822 27.48Z" fill="white"/>
<path d="M70.9563 17.652C70.939 17.9813 70.8783 18.328 70.7743 18.692C70.6876 19.0387 70.575 19.3593 70.4363 19.654C70.2976 19.9313 70.1503 20.1653 69.9943 20.356C69.8383 20.5467 69.691 20.642 69.5523 20.642C69.3616 20.6247 69.249 20.4947 69.2143 20.252C69.2143 20.2 69.2316 20.122 69.2663 20.018C69.3183 19.8967 69.3703 19.7667 69.4223 19.628C69.4743 19.4893 69.5176 19.3507 69.5523 19.212C69.6043 19.0733 69.6303 18.952 69.6303 18.848C69.6303 18.6053 69.5696 18.406 69.4483 18.25C69.3443 18.0767 69.197 17.99 69.0063 17.99C68.313 17.99 67.7843 18.4233 67.4203 19.29C67.0563 20.1567 66.8743 21.4307 66.8743 23.112C66.8743 23.2853 66.883 23.3893 66.9003 23.424C67.2643 23.4067 67.585 23.398 67.8623 23.398C68.157 23.3807 68.443 23.372 68.7203 23.372C68.7376 23.4067 68.7463 23.476 68.7463 23.58C68.7463 23.736 68.7116 23.8487 68.6423 23.918C68.2436 24.0047 67.923 24.0827 67.6803 24.152C67.455 24.204 67.2816 24.256 67.1603 24.308C67.039 24.36 66.961 24.4207 66.9263 24.49C66.909 24.542 66.9003 24.62 66.9003 24.724C66.9003 24.8627 66.9003 25.0013 66.9003 25.14C66.9176 25.2787 66.9263 25.452 66.9263 25.66C66.9263 27.116 66.5276 28.286 65.7303 29.17C64.9503 30.054 63.8583 30.5653 62.4543 30.704C62.2116 30.6867 61.9603 30.6173 61.7003 30.496C61.4403 30.3747 61.189 30.2187 60.9463 30.028C60.721 29.8373 60.5216 29.6207 60.3483 29.378C60.175 29.1527 60.0536 28.9187 59.9843 28.676C59.9843 28.0173 60.123 27.3933 60.4003 26.804C60.6776 26.1973 61.0503 25.6687 61.5183 25.218C62.0036 24.75 62.567 24.3773 63.2083 24.1C63.867 23.8053 64.5776 23.632 65.3403 23.58C65.3403 23.1467 65.297 22.722 65.2103 22.306C65.1236 21.89 65.0283 21.4913 64.9243 21.11C64.8376 20.7113 64.751 20.33 64.6643 19.966C64.5776 19.5847 64.5343 19.212 64.5343 18.848C64.5343 18.38 64.6296 17.9207 64.8203 17.47C65.011 17.002 65.2623 16.5773 65.5743 16.196C65.8863 15.7973 66.2503 15.4593 66.6663 15.182C67.0823 14.9047 67.5156 14.714 67.9663 14.61C68.157 14.662 68.4083 14.818 68.7203 15.078C69.0496 15.3207 69.3703 15.598 69.6823 15.91C69.9943 16.222 70.2716 16.5427 70.5143 16.872C70.757 17.184 70.9043 17.444 70.9563 17.652ZM62.3763 29.508C62.7923 29.3347 63.1823 29.0833 63.5463 28.754C63.9276 28.4247 64.257 28.052 64.5343 27.636C64.8116 27.22 65.0283 26.778 65.1843 26.31C65.3576 25.842 65.4443 25.3827 65.4443 24.932C65.0976 24.984 64.7163 25.1487 64.3003 25.426C63.8843 25.686 63.4943 26.0067 63.1303 26.388C62.7663 26.752 62.463 27.1333 62.2203 27.532C61.9776 27.9307 61.8563 28.2773 61.8563 28.572C61.8563 28.9533 62.0296 29.2653 62.3763 29.508Z" fill="white"/>
<path d="M74.0426 28.91C73.0546 28.806 72.2659 28.3727 71.6766 27.61C71.0872 26.8473 70.7926 25.8767 70.7926 24.698C70.7926 24.0047 70.8966 23.2853 71.1046 22.54C71.3126 21.7947 71.6072 21.0753 71.9886 20.382C72.3699 19.6713 72.8206 19.004 73.3406 18.38C73.8606 17.756 74.4239 17.2187 75.0306 16.768C75.9839 16.0573 76.8766 15.702 77.7086 15.702C78.2632 15.9967 78.8092 16.612 79.3466 17.548C79.4332 17.548 79.5112 17.548 79.5806 17.548C79.6499 17.5307 79.7279 17.522 79.8146 17.522C80.7332 17.522 81.1926 18.3367 81.1926 19.966C81.1926 21.058 81.0106 22.098 80.6466 23.086C80.2999 24.0567 79.8059 24.9407 79.1646 25.738C78.5406 26.5353 77.7866 27.2113 76.9026 27.766C76.0359 28.3033 75.0826 28.6847 74.0426 28.91ZM75.3686 20.72C75.0739 21.1187 74.7966 21.552 74.5366 22.02C74.2766 22.488 74.0512 22.9647 73.8606 23.45C73.6699 23.918 73.5226 24.3773 73.4186 24.828C73.3146 25.2613 73.2626 25.6513 73.2626 25.998C73.2626 26.414 73.3319 26.8127 73.4706 27.194C73.6092 27.5753 73.7652 27.792 73.9386 27.844C74.7186 27.6707 75.4292 27.35 76.0706 26.882C76.7292 26.3967 77.2926 25.7987 77.7606 25.088C78.2459 24.3773 78.6186 23.5713 78.8786 22.67C79.1559 21.7687 79.2946 20.8067 79.2946 19.784C79.2946 19.3333 79.2686 18.978 79.2166 18.718C79.1646 18.458 79.0779 18.2327 78.9566 18.042C78.1939 18.2673 77.5092 18.6313 76.9026 19.134C76.3132 19.6367 75.8019 20.1653 75.3686 20.72Z" fill="white"/>
<path d="M86.6631 15.39C87.1138 15.5287 87.5385 15.8407 87.9371 16.326C88.3358 16.794 88.6305 17.314 88.8211 17.886C88.6305 18.354 88.3358 18.9173 87.9371 19.576C87.5385 20.2347 87.1398 20.9107 86.7411 21.604C86.3425 22.28 85.9785 22.93 85.6491 23.554C85.3371 24.1607 85.1551 24.6633 85.1031 25.062C85.3805 24.7673 85.6838 24.4293 86.0131 24.048C86.3598 23.6493 86.6891 23.2593 87.0011 22.878C87.3305 22.4793 87.6338 22.124 87.9111 21.812C88.1885 21.4827 88.4051 21.24 88.5611 21.084C88.8905 20.7373 89.2805 20.3387 89.7311 19.888C90.1818 19.42 90.6498 18.9867 91.1351 18.588C91.6378 18.172 92.1405 17.8253 92.6431 17.548C93.1458 17.2533 93.6051 17.106 94.0211 17.106C94.4718 17.106 94.8445 17.262 95.1391 17.574C95.4511 17.8687 95.6938 18.1807 95.8671 18.51C95.8671 18.5447 95.7978 18.5967 95.6591 18.666C95.5378 18.718 95.3558 18.8827 95.1131 19.16C94.8705 19.472 94.5931 19.9053 94.2812 20.46C93.9865 20.9973 93.6918 21.5867 93.3971 22.228C93.1198 22.852 92.8858 23.4933 92.6951 24.152C92.5045 24.8107 92.4091 25.4087 92.4091 25.946C92.4091 26.3793 92.4611 26.6567 92.5651 26.778C92.6865 26.8993 92.8511 26.96 93.0591 26.96C93.2498 26.96 93.4491 26.9167 93.6571 26.83C93.8651 26.7433 94.0298 26.7 94.1511 26.7C94.2205 26.7347 94.2725 26.8127 94.3071 26.934C94.3591 27.038 94.3851 27.1333 94.3851 27.22C94.2465 27.3413 94.0818 27.4627 93.8911 27.584C93.7005 27.7053 93.5011 27.818 93.2931 27.922C93.0851 28.026 92.8771 28.1127 92.6691 28.182C92.4785 28.2513 92.3051 28.286 92.1491 28.286C91.6465 28.286 91.2305 28.208 90.9011 28.052C90.5891 27.9133 90.3378 27.7227 90.1471 27.48C89.9738 27.2373 89.8525 26.9513 89.7831 26.622C89.7138 26.2753 89.6791 25.9113 89.6791 25.53C89.6791 25.322 89.6965 25.088 89.7311 24.828C89.7658 24.568 89.8351 24.2647 89.9391 23.918C90.0431 23.554 90.1905 23.1293 90.3811 22.644C90.5718 22.1413 90.8145 21.5433 91.1091 20.85C91.0745 20.85 90.8405 20.9713 90.4072 21.214C89.9738 21.4567 89.5058 21.8293 89.0031 22.332C88.1885 23.112 87.4518 23.8833 86.7931 24.646C86.1518 25.4087 85.4931 26.258 84.8171 27.194C84.4358 27.7313 84.0978 28.182 83.8031 28.546C83.5258 28.9273 83.2831 29.1787 83.0751 29.3C82.7111 29.092 82.4425 28.7973 82.2691 28.416C82.0958 28.052 81.9658 27.6707 81.8791 27.272C81.8791 26.9427 81.9225 26.5267 82.0091 26.024C82.1131 25.5213 82.2431 24.9667 82.3991 24.36C82.5725 23.736 82.7805 23.086 83.0231 22.41C83.2658 21.734 83.5345 21.058 83.8291 20.382C84.4878 18.8567 85.0858 17.6607 85.6231 16.794C86.1778 15.9273 86.5245 15.4593 86.6631 15.39Z" fill="white"/>
<path d="M105.462 17.496C105.635 17.496 105.835 17.5307 106.06 17.6C106.303 17.652 106.519 17.73 106.71 17.834C106.901 17.9207 107.057 18.016 107.178 18.12C107.317 18.224 107.386 18.3193 107.386 18.406C107.039 19.134 106.719 19.8707 106.424 20.616C106.129 21.344 105.878 22.046 105.67 22.722C105.462 23.398 105.297 24.0307 105.176 24.62C105.072 25.2093 105.02 25.7207 105.02 26.154C105.02 26.6393 105.072 27.0467 105.176 27.376C105.28 27.688 105.453 27.9133 105.696 28.052C105.488 28.1907 105.219 28.3033 104.89 28.39C104.561 28.4767 104.266 28.52 104.006 28.52C103.07 28.52 102.602 27.8787 102.602 26.596C102.602 25.608 102.931 24.256 103.59 22.54C103.243 23.3373 102.845 24.0913 102.394 24.802C101.943 25.4953 101.484 26.1107 101.016 26.648C100.548 27.1853 100.071 27.6273 99.5862 27.974C99.1182 28.3033 98.6848 28.5027 98.2862 28.572C97.6448 28.5373 97.1248 28.234 96.7262 27.662C96.3275 27.0727 96.1282 26.3273 96.1282 25.426C96.1282 24.4553 96.3362 23.4327 96.7522 22.358C97.1682 21.2833 97.6968 20.2867 98.3382 19.368C98.9968 18.4493 99.7075 17.6867 100.47 17.08C101.233 16.456 101.969 16.1267 102.68 16.092C102.853 16.144 103.044 16.248 103.252 16.404C103.477 16.56 103.685 16.742 103.876 16.95C104.084 17.158 104.257 17.3747 104.396 17.6C104.535 17.808 104.613 17.99 104.63 18.146C103.937 18.25 103.217 18.588 102.472 19.16C101.744 19.732 101.077 20.4253 100.47 21.24C99.8808 22.0373 99.3955 22.8953 99.0142 23.814C98.6328 24.7327 98.4422 25.5907 98.4422 26.388C98.4422 26.7174 98.5635 26.9253 98.8062 27.012C99.3088 26.908 99.8895 26.4833 100.548 25.738C101.207 24.9753 102.004 23.8053 102.94 22.228C103.113 21.916 103.304 21.5693 103.512 21.188C103.737 20.8067 103.963 20.408 104.188 19.992C104.413 19.576 104.63 19.16 104.838 18.744C105.063 18.3107 105.271 17.8947 105.462 17.496Z" fill="white"/>
<path d="M108.679 26.336C108.679 25.5733 108.861 24.5073 109.225 23.138C109.589 21.7513 110.1 20.1393 110.759 18.302C111.834 15.3727 112.839 12.9373 113.775 10.996C114.728 9.03735 115.656 7.51201 116.557 6.42001C116.765 6.45468 117.016 6.54135 117.311 6.68001C117.623 6.81868 117.926 6.97468 118.221 7.14801C118.516 7.30401 118.776 7.46868 119.001 7.64201C119.244 7.81535 119.4 7.95401 119.469 8.05801C118.117 9.65268 116.93 11.3687 115.907 13.206C114.884 15.0433 113.948 17.1493 113.099 19.524C112.371 21.5693 111.816 23.4153 111.435 25.062C111.054 26.6913 110.863 28.052 110.863 29.144C110.863 29.4387 110.863 29.6207 110.863 29.69C110.863 29.7593 110.872 29.8287 110.889 29.898C110.646 29.8633 110.438 29.8027 110.265 29.716C110.092 29.6293 109.979 29.5253 109.927 29.404C109.892 29.3173 109.797 29.1873 109.641 29.014C109.485 28.858 109.346 28.7367 109.225 28.65C109.069 28.546 108.939 28.2773 108.835 27.844C108.731 27.3933 108.679 26.8907 108.679 26.336Z" fill="white"/>
<path d="M130.899 8.78601C131.558 8.78601 132.242 8.90735 132.953 9.15001C133.664 9.39268 134.288 9.70468 134.825 10.086C134.652 10.97 134.487 11.7673 134.331 12.478C134.192 13.1887 134.062 13.8387 133.941 14.428C133.82 15 133.698 15.5287 133.577 16.014C133.473 16.482 133.369 16.924 133.265 17.34C132.849 18.9 132.416 20.3127 131.965 21.578C131.532 22.826 131.064 23.9527 130.561 24.958C130.076 25.9633 129.556 26.856 129.001 27.636C128.464 28.416 127.883 29.1007 127.259 29.69C126.652 30.262 126.046 30.73 125.439 31.094C124.832 31.458 124.269 31.692 123.749 31.796C123.056 31.796 122.414 31.718 121.825 31.562C121.236 31.406 120.724 31.1893 120.291 30.912C119.875 30.652 119.546 30.3313 119.303 29.95C119.078 29.586 118.965 29.1787 118.965 28.728C118.965 28.2427 119.086 27.636 119.329 26.908C119.572 26.1627 119.944 25.2873 120.447 24.282C120.655 24.2993 120.898 24.3513 121.175 24.438C121.452 24.5247 121.73 24.6287 122.007 24.75C122.284 24.8713 122.536 25.01 122.761 25.166C122.986 25.3047 123.151 25.4433 123.255 25.582C122.7 26.154 122.25 26.7867 121.903 27.48C121.556 28.156 121.383 28.7453 121.383 29.248C121.383 29.5427 121.435 29.8027 121.539 30.028C121.66 30.2707 121.86 30.4873 122.137 30.678C123.194 30.2793 124.226 29.534 125.231 28.442C126.236 27.3673 127.129 26.024 127.909 24.412C128.377 23.4587 128.802 22.3667 129.183 21.136C129.564 19.9053 129.885 18.6747 130.145 17.444C130.422 16.196 130.63 15.0087 130.769 13.882C130.925 12.738 131.003 11.776 131.003 10.996C131.003 10.8747 130.994 10.71 130.977 10.502C130.977 10.2767 130.968 10.0513 130.951 9.82601C130.951 9.58335 130.942 9.36668 130.925 9.17601C130.908 8.98535 130.899 8.85535 130.899 8.78601Z" fill="white"/>
<path d="M137.037 28.91C136.049 28.806 135.26 28.3727 134.671 27.61C134.081 26.8473 133.787 25.8767 133.787 24.698C133.787 24.0047 133.891 23.2853 134.099 22.54C134.307 21.7947 134.601 21.0753 134.983 20.382C135.364 19.6713 135.815 19.004 136.335 18.38C136.855 17.756 137.418 17.2187 138.025 16.768C138.978 16.0573 139.871 15.702 140.703 15.702C141.257 15.9967 141.803 16.612 142.341 17.548C142.427 17.548 142.505 17.548 142.575 17.548C142.644 17.5307 142.722 17.522 142.809 17.522C143.727 17.522 144.187 18.3367 144.187 19.966C144.187 21.058 144.005 22.098 143.641 23.086C143.294 24.0567 142.8 24.9407 142.159 25.738C141.535 26.5353 140.781 27.2113 139.897 27.766C139.03 28.3033 138.077 28.6847 137.037 28.91ZM138.363 20.72C138.068 21.1187 137.791 21.552 137.531 22.02C137.271 22.488 137.045 22.9647 136.855 23.45C136.664 23.918 136.517 24.3773 136.413 24.828C136.309 25.2613 136.257 25.6513 136.257 25.998C136.257 26.414 136.326 26.8127 136.465 27.194C136.603 27.5753 136.759 27.792 136.933 27.844C137.713 27.6707 138.423 27.35 139.065 26.882C139.723 26.3967 140.287 25.7987 140.755 25.088C141.24 24.3773 141.613 23.5713 141.873 22.67C142.15 21.7687 142.289 20.8067 142.289 19.784C142.289 19.3333 142.263 18.978 142.211 18.718C142.159 18.458 142.072 18.2327 141.951 18.042C141.188 18.2673 140.503 18.6313 139.897 19.134C139.307 19.6367 138.796 20.1653 138.363 20.72Z" fill="white"/>
<path d="M152.517 27.428C152.188 27.1507 151.963 26.804 151.841 26.388C151.737 25.972 151.685 25.6167 151.685 25.322C151.685 24.958 151.729 24.646 151.815 24.386C151.746 24.386 151.59 24.5247 151.347 24.802C151.105 25.0793 150.836 25.4087 150.541 25.79C150.264 26.1713 149.987 26.544 149.709 26.908C149.432 27.272 149.224 27.5407 149.085 27.714C148.86 27.9567 148.643 28.1473 148.435 28.286C148.245 28.4247 148.089 28.5027 147.967 28.52C147.69 28.5027 147.395 28.442 147.083 28.338C146.789 28.2513 146.503 28.1213 146.225 27.948C145.965 27.7747 145.731 27.5667 145.523 27.324C145.333 27.0813 145.203 26.804 145.133 26.492C145.133 26.0067 145.142 25.608 145.159 25.296C145.194 24.984 145.255 24.646 145.341 24.282C145.497 23.6233 145.723 22.878 146.017 22.046C146.329 21.214 146.685 20.3993 147.083 19.602C147.482 18.7873 147.924 18.0333 148.409 17.34C148.912 16.6293 149.441 16.0747 149.995 15.676C150.151 15.676 150.333 15.6933 150.541 15.728C150.749 15.7453 150.957 15.7887 151.165 15.858C151.391 15.9273 151.599 16.014 151.789 16.118C151.997 16.2047 152.171 16.326 152.309 16.482C152.153 16.6553 151.755 17.236 151.113 18.224C150.489 19.212 149.787 20.6333 149.007 22.488C148.921 22.6787 148.817 22.956 148.695 23.32C148.574 23.684 148.453 24.0653 148.331 24.464C148.21 24.8627 148.106 25.2527 148.019 25.634C147.95 26.0153 147.915 26.3187 147.915 26.544C147.915 26.6827 147.933 26.7867 147.967 26.856C148.019 26.9253 148.063 26.9773 148.097 27.012C148.357 26.908 148.687 26.622 149.085 26.154C149.484 25.686 150.039 24.9667 150.749 23.996C150.923 23.7533 151.122 23.476 151.347 23.164C151.59 22.852 151.833 22.5227 152.075 22.176C152.318 21.812 152.543 21.4393 152.751 21.058C152.977 20.6767 153.159 20.2953 153.297 19.914C153.367 19.706 153.453 19.4633 153.557 19.186C153.679 18.8913 153.817 18.588 153.973 18.276C154.147 17.964 154.337 17.652 154.545 17.34C154.771 17.0107 155.031 16.7073 155.325 16.43C155.551 16.43 155.793 16.456 156.053 16.508C156.313 16.56 156.556 16.6293 156.781 16.716C157.024 16.7853 157.232 16.872 157.405 16.976C157.579 17.0627 157.709 17.158 157.795 17.262C157.483 18.0247 157.137 18.7787 156.755 19.524C156.374 20.2693 156.019 21.006 155.689 21.734C155.36 22.4447 155.083 23.1553 154.857 23.866C154.632 24.5767 154.519 25.27 154.519 25.946C154.519 26.31 154.545 26.6307 154.597 26.908C154.667 27.168 154.736 27.3933 154.805 27.584C154.875 27.7573 154.935 27.9047 154.987 28.026C155.057 28.1473 155.091 28.2513 155.091 28.338C155.091 28.3553 155.074 28.3813 155.039 28.416C155.022 28.4333 155.005 28.442 154.987 28.442C154.866 28.442 154.71 28.416 154.519 28.364C154.329 28.312 154.112 28.234 153.869 28.13C153.644 28.0433 153.41 27.9394 153.167 27.818C152.942 27.6967 152.725 27.5667 152.517 27.428Z" fill="white"/>
<path d="M157.669 27.48C157.756 26.9773 157.903 26.3187 158.111 25.504C158.336 24.672 158.596 23.7967 158.891 22.878C159.186 21.942 159.498 21.006 159.827 20.07C160.156 19.134 160.477 18.2933 160.789 17.548C161.014 17.0107 161.214 16.5947 161.387 16.3C161.56 15.988 161.751 15.728 161.959 15.52C162.202 15.5547 162.453 15.6153 162.713 15.702C162.973 15.7887 163.224 15.8927 163.467 16.014C163.71 16.1353 163.926 16.2653 164.117 16.404C164.308 16.5253 164.455 16.6467 164.559 16.768C164.091 17.3227 163.675 17.9553 163.311 18.666C162.964 19.3767 162.609 20.2867 162.245 21.396C163.181 20.564 164.004 19.7667 164.715 19.004C165.443 18.2413 166.119 17.392 166.743 16.456C166.847 16.3693 167.029 16.326 167.289 16.326C167.532 16.326 167.766 16.3693 167.991 16.456C168.216 16.5253 168.372 16.6293 168.459 16.768C168.147 17.6 167.991 18.4233 167.991 19.238C167.991 20.0007 168.104 20.5727 168.329 20.954C168.312 21.058 168.19 21.2573 167.965 21.552C167.757 21.8467 167.523 22.124 167.263 22.384C166.795 22.1413 166.379 21.812 166.015 21.396C165.651 20.9627 165.382 20.4947 165.209 19.992C164.394 20.564 163.701 21.1273 163.129 21.682C162.557 22.2193 162.063 22.826 161.647 23.502C161.248 24.1607 160.902 24.9233 160.607 25.79C160.33 26.6567 160.061 27.688 159.801 28.884C159.645 28.8667 159.454 28.806 159.229 28.702C159.021 28.6153 158.804 28.5027 158.579 28.364C158.371 28.2253 158.18 28.078 158.007 27.922C157.834 27.766 157.721 27.6187 157.669 27.48Z" fill="white"/>
<path d="M172.991 15.39C173.442 15.5287 173.867 15.8407 174.265 16.326C174.664 16.794 174.959 17.314 175.149 17.886C174.959 18.354 174.664 18.9173 174.265 19.576C173.867 20.2347 173.468 20.9107 173.069 21.604C172.671 22.28 172.307 22.93 171.977 23.554C171.665 24.1607 171.483 24.6633 171.431 25.062C171.709 24.7673 172.012 24.4293 172.341 24.048C172.688 23.6493 173.017 23.2593 173.329 22.878C173.659 22.4793 173.962 22.124 174.239 21.812C174.517 21.4827 174.733 21.24 174.889 21.084C175.219 20.7373 175.609 20.3387 176.059 19.888C176.51 19.42 176.978 18.9867 177.463 18.588C177.966 18.172 178.469 17.8253 178.971 17.548C179.474 17.2533 179.933 17.106 180.349 17.106C180.8 17.106 181.173 17.262 181.467 17.574C181.779 17.8687 182.022 18.1807 182.195 18.51C182.195 18.5447 182.126 18.5967 181.987 18.666C181.866 18.718 181.684 18.8827 181.441 19.16C181.199 19.472 180.921 19.9053 180.609 20.46C180.315 20.9973 180.02 21.5867 179.725 22.228C179.448 22.852 179.214 23.4933 179.023 24.152C178.833 24.8107 178.737 25.4087 178.737 25.946C178.737 26.3793 178.789 26.6567 178.893 26.778C179.015 26.8993 179.179 26.96 179.387 26.96C179.578 26.96 179.777 26.9167 179.985 26.83C180.193 26.7433 180.358 26.7 180.479 26.7C180.549 26.7347 180.601 26.8127 180.635 26.934C180.687 27.038 180.713 27.1333 180.713 27.22C180.575 27.3413 180.41 27.4627 180.219 27.584C180.029 27.7053 179.829 27.818 179.621 27.922C179.413 28.026 179.205 28.1127 178.997 28.182C178.807 28.2513 178.633 28.286 178.477 28.286C177.975 28.286 177.559 28.208 177.229 28.052C176.917 27.9133 176.666 27.7227 176.475 27.48C176.302 27.2373 176.181 26.9513 176.111 26.622C176.042 26.2753 176.007 25.9113 176.007 25.53C176.007 25.322 176.025 25.088 176.059 24.828C176.094 24.568 176.163 24.2647 176.267 23.918C176.371 23.554 176.519 23.1293 176.709 22.644C176.9 22.1413 177.143 21.5433 177.437 20.85C177.403 20.85 177.169 20.9713 176.735 21.214C176.302 21.4567 175.834 21.8293 175.331 22.332C174.517 23.112 173.78 23.8833 173.121 24.646C172.48 25.4087 171.821 26.258 171.145 27.194C170.764 27.7313 170.426 28.182 170.131 28.546C169.854 28.9273 169.611 29.1787 169.403 29.3C169.039 29.092 168.771 28.7973 168.597 28.416C168.424 28.052 168.294 27.6707 168.207 27.272C168.207 26.9427 168.251 26.5267 168.337 26.024C168.441 25.5213 168.571 24.9667 168.727 24.36C168.901 23.736 169.109 23.086 169.351 22.41C169.594 21.734 169.863 21.058 170.157 20.382C170.816 18.8567 171.414 17.6607 171.951 16.794C172.506 15.9273 172.853 15.4593 172.991 15.39Z" fill="white"/>
<path d="M191.79 17.496C191.964 17.496 192.163 17.5307 192.388 17.6C192.631 17.652 192.848 17.73 193.038 17.834C193.229 17.9207 193.385 18.016 193.506 18.12C193.645 18.224 193.714 18.3193 193.714 18.406C193.368 19.134 193.047 19.8707 192.752 20.616C192.458 21.344 192.206 22.046 191.998 22.722C191.79 23.398 191.626 24.0307 191.504 24.62C191.4 25.2093 191.348 25.7207 191.348 26.154C191.348 26.6393 191.4 27.0467 191.504 27.376C191.608 27.688 191.782 27.9133 192.024 28.052C191.816 28.1907 191.548 28.3033 191.218 28.39C190.889 28.4767 190.594 28.52 190.334 28.52C189.398 28.52 188.93 27.8787 188.93 26.596C188.93 25.608 189.26 24.256 189.918 22.54C189.572 23.3373 189.173 24.0913 188.722 24.802C188.272 25.4953 187.812 26.1107 187.344 26.648C186.876 27.1853 186.4 27.6273 185.914 27.974C185.446 28.3033 185.013 28.5027 184.614 28.572C183.973 28.5373 183.453 28.234 183.054 27.662C182.656 27.0727 182.456 26.3273 182.456 25.426C182.456 24.4553 182.664 23.4327 183.08 22.358C183.496 21.2833 184.025 20.2867 184.666 19.368C185.325 18.4493 186.036 17.6867 186.798 17.08C187.561 16.456 188.298 16.1267 189.008 16.092C189.182 16.144 189.372 16.248 189.58 16.404C189.806 16.56 190.014 16.742 190.204 16.95C190.412 17.158 190.586 17.3747 190.724 17.6C190.863 17.808 190.941 17.99 190.958 18.146C190.265 18.25 189.546 18.588 188.8 19.16C188.072 19.732 187.405 20.4253 186.798 21.24C186.209 22.0373 185.724 22.8953 185.342 23.814C184.961 24.7327 184.77 25.5907 184.77 26.388C184.77 26.7174 184.892 26.9253 185.134 27.012C185.637 26.908 186.218 26.4833 186.876 25.738C187.535 24.9753 188.332 23.8053 189.268 22.228C189.442 21.916 189.632 21.5693 189.84 21.188C190.066 20.8067 190.291 20.408 190.516 19.992C190.742 19.576 190.958 19.16 191.166 18.744C191.392 18.3107 191.6 17.8947 191.79 17.496Z" fill="white"/>
<path d="M195.007 26.336C195.007 25.5733 195.189 24.5073 195.553 23.138C195.917 21.7513 196.429 20.1393 197.087 18.302C198.162 15.3727 199.167 12.9373 200.103 10.996C201.057 9.03735 201.984 7.51201 202.885 6.42001C203.093 6.45468 203.345 6.54135 203.639 6.68001C203.951 6.81868 204.255 6.97468 204.549 7.14801C204.844 7.30401 205.104 7.46868 205.329 7.64201C205.572 7.81535 205.728 7.95401 205.797 8.05801C204.445 9.65268 203.258 11.3687 202.235 13.206C201.213 15.0433 200.277 17.1493 199.427 19.524C198.699 21.5693 198.145 23.4153 197.763 25.062C197.382 26.6913 197.191 28.052 197.191 29.144C197.191 29.4387 197.191 29.6207 197.191 29.69C197.191 29.7593 197.2 29.8287 197.217 29.898C196.975 29.8633 196.767 29.8027 196.593 29.716C196.42 29.6293 196.307 29.5253 196.255 29.404C196.221 29.3173 196.125 29.1873 195.969 29.014C195.813 28.858 195.675 28.7367 195.553 28.65C195.397 28.546 195.267 28.2773 195.163 27.844C195.059 27.3933 195.007 26.8907 195.007 26.336Z" fill="white"/>
</svg>
